# xmcd
#
# Track frame offsets: 
#        150
#        13390
#        27809
#        50891
#        63048
#        81943
#        94986
#        114602
#        135922
#        150944
#        167929
#        170336
#        187843
#        214173
#        226050
#        252069
#
# Disc length: 3429 seconds
#
# Revision: 1
# Processed by: cddbd v1.5.2PL0 Copyright (c) Steve Scherf et al.
# Submitted via: ExactAudioCopy v1.0b1
#
DISCID=c80d6310
DTITLE=Blues Flowers - Spoko wodza
DYEAR=2003
DGENRE=Blues
TTITLE0=Heniu, nie graj kozaka
TTITLE1=Kurza melodia
TTITLE2=Spoko wodza
TTITLE3=Moda na loda
TTITLE4=Gdybym tylko mógł
TTITLE5=Moja lutownica
TTITLE6=Życie przez dwie przecznice
TTITLE7=Nie będę grzeczną dziewczynką
TTITLE8=Znalazłem na śmietniku
TTITLE9=Bo mnie o to szło
TTITLE10=Hot dog blues
TTITLE11=Robal bawełnę mą zżera
TTITLE12=Pachotliwyj żerebiec
TTITLE13=O koksie
TTITLE14=Rób mi inaczej
TTITLE15=Nie zwódź mnie
EXTD=YEAR: 2003
EXTT0=
EXTT1=
EXTT2=
EXTT3=
EXTT4=
EXTT5=
EXTT6=
EXTT7=
EXTT8=
EXTT9=
EXTT10=
EXTT11=
EXTT12=
EXTT13=
EXTT14=
EXTT15=
PLAYORDER=
